<?xml version="1.0" standalone="no"?>
<!DOCTYPE svg PUBLIC "-//W3C//DTD SVG 20010904//EN"
 "http://www.w3.org/TR/2001/REC-SVG-20010904/DTD/svg10.dtd">
<svg version="1.0" xmlns="http://www.w3.org/2000/svg"
 width="1200.000000pt" height="1200.000000pt" viewBox="0 0 1200.000000 1200.000000"
 preserveAspectRatio="xMidYMid meet">
<metadata>
Created by potrace 1.14, written by Peter Selinger 2001-2017
</metadata>
<g transform="translate(0.000000,1200.000000) scale(0.100000,-0.100000)"
fill="#000000" stroke="none">
<path d="M0 6000 l0 -6000 6000 0 6000 0 0 6000 0 6000 -6000 0 -6000 0 0
-6000z m5070 4170 l0 -781 -137 3 -138 3 -3 778 -2 777 140 0 140 0 0 -780z
m-3440 610 l0 -151 -147 3 -148 3 -3 148 -3 147 151 0 150 0 0 -150z m1642
-117 l3 -208 98 1 97 1 0 -118 0 -119 -101 0 -101 0 4 -247 c2 -178 7 -254 16
-270 17 -31 63 -53 111 -53 72 0 71 2 71 -141 l0 -129 -37 0 c-65 1 -186 19
-238 37 -76 25 -147 101 -176 189 -23 68 -23 74 -27 667 l-3 597 140 0 141 0
2 -207z m-708 -215 c121 -40 208 -132 249 -263 21 -67 22 -86 22 -430 l0 -360
-137 -3 -136 -3 -4 328 c-3 316 -4 330 -26 378 -45 98 -104 134 -217 135 -60
0 -78 -5 -123 -31 -67 -38 -106 -98 -121 -183 -6 -35 -11 -185 -11 -345 l0
-282 -137 3 -138 3 -3 528 -2 527 140 0 140 0 0 -70 0 -69 48 48 c54 54 137
98 209 111 66 12 176 2 247 -22z m1698 6 c237 -70 387 -283 388 -551 l0 -73
-416 0 -416 0 7 -27 c9 -41 49 -98 89 -128 107 -82 300 -72 422 21 25 19 50
32 57 28 10 -6 169 -127 187 -142 12 -10 -112 -106 -185 -143 -409 -204 -868
77 -842 516 11 181 97 334 240 426 143 93 312 119 469 73z m-2642 -534 l0
-531 -137 3 -138 3 -3 528 -2 527 140 0 140 0 0 -530z m3866 -265 c35 -22 68
-99 60 -138 -33 -162 -262 -171 -292 -10 -24 130 120 222 232 148z m-2886
-2541 c230 -41 445 -155 613 -327 l79 -80 -112 -112 -112 -113 -66 69 c-162
173 -376 261 -627 261 -325 -2 -596 -170 -735 -457 -68 -142 -84 -212 -84
-370 1 -100 6 -148 23 -210 78 -291 298 -510 591 -591 100 -28 329 -26 432 3
163 48 288 122 409 244 l76 78 107 -108 c93 -94 107 -111 98 -128 -19 -34
-167 -169 -243 -220 -215 -146 -416 -207 -674 -207 -334 1 -621 117 -846 344
-216 217 -323 483 -323 800 0 200 30 332 115 505 227 464 742 713 1279 619z
m2342 -5 c483 -95 849 -473 918 -948 19 -130 8 -343 -25 -466 -98 -368 -380
-667 -745 -789 -142 -47 -224 -59 -395 -59 -171 0 -253 12 -395 59 -401 134
-695 476 -766 891 -24 138 -15 344 19 475 53 203 152 375 296 519 284 283 682
399 1093 318z m4931 0 c546 -110 927 -570 927 -1120 0 -53 -3 -111 -6 -128
l-6 -31 -989 0 c-575 0 -989 -4 -989 -9 0 -23 45 -152 72 -206 160 -319 478
-490 845 -455 239 22 385 86 545 238 62 60 91 81 101 75 43 -25 247 -189 247
-198 0 -16 -134 -143 -207 -197 -138 -102 -336 -183 -518 -214 -125 -22 -381
-24 -485 -5 -490 88 -855 444 -947 920 -21 114 -21 309 1 424 66 346 292 644
606 802 135 68 299 115 450 129 81 7 253 -5 353 -25z m-2248 -42 c297 -105
475 -349 475 -652 0 -159 -57 -320 -155 -438 -54 -64 -177 -162 -243 -191 -31
-14 -41 -24 -37 -35 3 -9 116 -208 251 -443 134 -235 244 -430 244 -433 0 -3
-84 -5 -187 -5 l-188 0 -239 430 -240 430 -353 0 -353 0 -2 -427 -3 -428 -172
-3 -173 -2 0 798 c0 439 -3 941 -7 1116 l-6 317 654 -3 654 -3 80 -28z m3155
23 c0 -5 -11 -10 -25 -10 -25 0 -25 -1 -25 -80 0 -73 -2 -80 -20 -80 -18 0
-20 7 -20 80 0 79 0 80 -25 80 -14 0 -25 5 -25 10 0 6 30 10 70 10 40 0 70 -4
70 -10z m91 -31 l35 -42 33 42 c51 64 61 56 61 -49 0 -73 -3 -90 -15 -90 -12
0 -15 14 -16 63 l0 62 -32 -38 -31 -38 -33 38 -32 38 -1 -62 c0 -49 -3 -63
-15 -63 -12 0 -15 17 -15 90 0 105 7 111 61 49z m179 -4979 c156 -48 293 -194
329 -350 15 -66 13 -169 -5 -231 -8 -30 -104 -224 -212 -431 l-197 -377 -158
-1 -159 0 77 148 c43 81 97 184 121 228 l44 81 -75 5 c-199 13 -382 189 -417
400 -23 143 28 296 136 404 138 138 327 184 516 124z m-830 -155 l0 -155 -155
0 -155 0 0 155 0 155 155 0 155 0 0 -155z m-10 -785 l0 -450 -145 0 -145 0 0
450 0 450 145 0 145 0 0 -450z"/>
<path d="M4020 10229 c-91 -18 -181 -99 -196 -178 l-7 -34 114 6 c63 4 190 7
283 7 l168 0 -7 28 c-18 75 -95 142 -192 167 -63 16 -95 17 -163 4z"/>
<path d="M5344 9650 c-56 -22 -86 -103 -61 -163 21 -48 60 -72 120 -72 43 0
52 4 83 37 27 30 34 46 34 78 0 52 -23 96 -60 115 -32 16 -83 19 -116 5z m100
-56 c20 -19 20 -35 2 -59 -12 -16 -12 -22 1 -42 9 -13 13 -26 10 -30 -9 -8
-35 15 -42 38 -4 10 -15 19 -26 19 -14 0 -19 -7 -19 -30 0 -16 -4 -30 -10 -30
-6 0 -10 32 -10 75 l0 75 39 0 c23 0 46 -7 55 -16z"/>
<path d="M5370 9565 c0 -23 4 -26 28 -23 19 2 27 9 27 23 0 14 -8 21 -27 23
-24 3 -28 0 -28 -23z"/>
<path d="M4598 6809 c-326 -34 -607 -274 -700 -596 -20 -66 -23 -101 -23 -233
1 -149 2 -159 33 -250 82 -238 252 -421 474 -509 370 -148 791 -18 1005 311
100 153 138 297 130 492 -5 136 -22 207 -73 315 -153 325 -484 509 -846 470z"/>
<path d="M9425 6791 c-158 -41 -263 -99 -379 -210 -110 -106 -185 -230 -220
-368 -9 -33 -16 -64 -16 -67 0 -3 365 -6 811 -6 l812 0 -7 42 c-4 23 -20 75
-36 115 -93 232 -281 405 -525 483 -99 32 -338 38 -440 11z"/>
<path d="M6600 6415 l0 -365 408 0 c303 0 421 4 463 14 245 57 355 342 217
558 -37 60 -93 104 -166 134 -57 23 -59 24 -489 24 l-433 0 0 -365z"/>
<path d="M10816 1844 c-119 -43 -181 -168 -146 -295 13 -48 75 -118 124 -140
93 -42 213 -16 279 62 155 181 -34 455 -257 373z"/>
</g>
</svg>
